<svg width="44" height="44" viewBox="0 0 44 44" fill="none" xmlns="http://www.w3.org/2000/svg">
<g clip-path="url(#clip0_271:2)">
<path d="M42.35 21.7614C42.6545 21.7614 42.9014 21.5145 42.9014 21.2099C42.9014 20.9053 42.6545 20.6584 42.35 20.6584L42.0637 20.6584L42.0637 20.2911C42.0637 19.9866 41.8168 19.7397 41.5122 19.7397C41.2077 19.7397 40.9608 19.9866 40.9608 20.2912L40.9608 20.6585L35.7871 20.6585L35.2728 19.2868C35.1921 19.0717 34.9862 18.929 34.7564 18.929L30.0112 18.929L30.0112 18.8994C30.0112 18.5949 29.7643 18.3479 29.4598 18.348L15.2044 18.3479C15.0582 18.3478 14.9179 18.4059 14.8144 18.5094L14.0157 19.3081L10.7339 20.3412L9.59138 19.77C9.49315 19.7208 9.38255 19.7022 9.27363 19.7164L3.33515 20.488C3.18037 20.5081 3.04137 20.5928 2.9526 20.7212C2.86382 20.8496 2.83358 21.0095 2.86941 21.1614L3.97658 25.8584C4.00034 25.9593 4.05169 26.0502 4.12345 26.1219C4.16199 26.1605 4.20637 26.1934 4.25557 26.2194C4.39629 26.2939 4.56228 26.3038 4.71086 26.2468L13.8788 22.7304L14.144 23.4552C14.262 23.7778 14.2557 24.1309 14.1262 24.4491L12.9887 27.2443C12.9335 27.38 12.9345 27.5321 12.9916 27.667C13.0196 27.733 13.0597 27.7924 13.1095 27.8421C13.1614 27.894 13.2236 27.9355 13.293 27.9636L15.4008 28.8148C15.6596 28.9193 15.9556 28.8141 16.0903 28.5696L18.122 24.8825L21.0364 24.8825C21.2959 26.0299 21.7268 27.1361 22.3201 28.1584C22.8325 29.0415 23.4587 29.853 24.1777 30.572C24.8587 31.253 25.6231 31.851 26.4528 32.3477C26.7006 32.496 27.0206 32.4282 27.1869 32.1922L29.1546 29.4002C29.2448 29.2721 29.2763 29.1116 29.2412 28.959C29.2061 28.8062 29.1076 28.6757 28.9707 28.5999C26.7653 27.3803 25.3646 25.1004 25.2619 22.5992L25.9483 22.1532L29.4599 22.1532C29.6062 22.1533 29.7465 22.0951 29.8499 21.9917C29.9148 21.9269 29.9617 21.8476 29.9878 21.7613L35.4052 21.7613L42.35 21.7614ZM4.90542 24.991L4.08322 21.5031L9.24875 20.8319L10.4401 21.4276C10.568 21.4916 10.7159 21.5033 10.8523 21.4603L13.7587 20.5454L13.7587 21.5953L4.90542 24.991ZM14.8616 21.7529L14.8615 20.022L15.4328 19.4508L15.4328 19.4508L25.2332 19.4509V21.3024L24.5401 21.7528L14.8616 21.7529ZM18.9367 23.7795L18.3477 23.7796L18.3477 22.8557L18.9368 22.8557L18.9367 23.7795ZM14.2187 27.148L15.1478 24.865C15.3809 24.2923 15.3922 23.657 15.1798 23.0763L15.0992 22.8558L17.2447 22.8558L17.2448 24.1892L15.3604 27.609L14.2187 27.148ZM20.0397 23.7796L20.0397 22.8557L20.7619 22.8557C20.7766 23.1651 20.8027 23.4733 20.8417 23.7795L20.0397 23.7796ZM27.9117 29.249L26.5873 31.1284C25.2319 30.2253 24.0928 29.0156 23.2741 27.6049C22.4347 26.1584 21.9519 24.5271 21.8646 22.8558L24.1704 22.8558C24.3435 25.4546 25.7317 27.8246 27.9117 29.249ZM26.3362 21.0503L26.3362 19.4509L28.8558 19.4509C28.8553 19.4608 28.8544 19.4704 28.8543 19.4804L28.8543 21.0502L26.3362 21.0503ZM30.0113 20.6583L30.0113 20.0318L34.3742 20.0318L34.6092 20.6583L30.0113 20.6583Z" fill="#8CFF9F"/>
<path d="M19.0761 20.5751C19.0762 20.2705 18.8292 20.0236 18.5247 20.0236L17.0183 20.0236C16.7137 20.0236 16.4668 20.2705 16.4668 20.5751C16.4668 20.7274 16.5285 20.8653 16.6283 20.965C16.7281 21.0648 16.866 21.1266 17.0183 21.1265L18.5247 21.1265C18.8292 21.1265 19.0761 20.8797 19.0761 20.5751Z" fill="#8CFF9F"/>
</g>
<defs>
<clipPath id="clip0_271:2">
<rect width="31.1123" height="31.1123" fill="white" transform="translate(22) rotate(45)"/>
</clipPath>
</defs>
</svg>
