<svg width="24" height="24" viewBox="0 0 24 24" fill="none" xmlns="http://www.w3.org/2000/svg">
<g clip-path="url(#clip0_279:21)">
<path d="M24 13.6983C24 12.0388 22.8855 10.5613 21.2898 10.1053L18.8455 9.40694L16.9209 5.55777C16.3317 4.37946 15.1473 3.64746 13.8299 3.64746H6.61158C5.17915 3.64746 3.87878 4.54859 3.37581 5.88981L2.02461 9.49297L1.26932 9.87057C0.4864 10.2621 0 11.0492 0 11.9245V17.7651H3.37106C3.69515 19.2433 5.01412 20.3533 6.58824 20.3533C8.16235 20.3533 9.48132 19.2433 9.80541 17.7651H14.1946C14.5187 19.2433 15.8377 20.3533 17.4118 20.3533C18.9859 20.3533 20.3049 19.2433 20.629 17.7651H24V13.6983ZM15.6581 6.18916L17.2108 9.29452H10.8235V5.05923H13.8299C14.6091 5.05923 15.3096 5.49217 15.6581 6.18916ZM4.69769 6.38553C4.99515 5.59226 5.76433 5.05923 6.61158 5.05923H9.41177V9.29452H3.60682L4.69769 6.38553ZM6.58824 18.9416C5.55031 18.9416 4.70588 18.0972 4.70588 17.0592C4.70588 16.0213 5.55031 15.1769 6.58824 15.1769C7.62616 15.1769 8.47059 16.0213 8.47059 17.0592C8.47059 18.0972 7.62616 18.9416 6.58824 18.9416ZM17.4118 18.9416C16.3738 18.9416 15.5294 18.0972 15.5294 17.0592C15.5294 16.0213 16.3738 15.1769 17.4118 15.1769C18.4497 15.1769 19.2941 16.0213 19.2941 17.0592C19.2941 18.0972 18.4497 18.9416 17.4118 18.9416ZM20.6289 16.3533C20.3048 14.8751 18.9859 13.7651 17.4118 13.7651C15.8376 13.7651 14.5187 14.8751 14.1946 16.3533H9.80536C9.48127 14.8751 8.16231 13.7651 6.58819 13.7651C5.01407 13.7651 3.69511 14.8751 3.37101 16.3533H1.41176V11.9245C1.41176 11.5873 1.59911 11.2842 1.90075 11.1333L2.75487 10.7063H18.1176V10.6674L20.902 11.4628C21.6006 11.6625 22.1505 12.177 22.4153 12.824H21.1765V14.2357H22.5882V16.3534H20.6289V16.3533Z" fill="#8CFF9F"/>
</g>
<defs>
<clipPath id="clip0_279:21">
<rect width="24" height="24" fill="white"/>
</clipPath>
</defs>
</svg>
