<svg width="11" height="11" viewBox="0 0 11 11" fill="none" xmlns="http://www.w3.org/2000/svg">
<g clip-path="url(#clip0_227:803)">
<path d="M8.24975 4.15658V2.74961C8.24975 2.07726 7.77836 1.47129 6.92242 1.04335C6.16747 0.665896 5.17396 0.458008 4.12489 0.458008C3.0757 0.458008 2.08215 0.665896 1.32724 1.04335C0.471363 1.47129 0 2.07726 0 2.74961V4.58287V6.41606V8.24932C0 8.92169 0.471363 9.52764 1.32727 9.95561C2.08219 10.3331 3.07573 10.5409 4.12492 10.5409C4.92417 10.5409 5.68612 10.4217 6.34434 10.1955C6.77937 10.4163 7.27109 10.5409 7.7914 10.5409C9.56064 10.5409 11 9.10153 11 7.33229C11 5.71869 9.80263 4.37968 8.24975 4.15658ZM0.916751 6.05043C1.04176 6.13492 1.17854 6.21477 1.32727 6.28912C2.08219 6.66658 3.07576 6.87447 4.12492 6.87447C4.29036 6.87447 4.45483 6.869 4.61777 6.8587C4.59482 7.01329 4.58275 7.17143 4.58275 7.33232C4.58275 7.48203 4.59329 7.62935 4.61324 7.77365C4.45217 7.78514 4.28905 7.79094 4.12492 7.79094C2.28873 7.79097 0.916751 7.06509 0.916751 6.41609V6.05043ZM4.91479 5.912C4.65743 5.94229 4.39273 5.95769 4.12489 5.95769C2.28873 5.95772 0.916751 5.23186 0.916751 4.58287V4.21721C1.04176 4.3017 1.17854 4.38155 1.32727 4.45587C2.08219 4.83335 3.07576 5.04121 4.12492 5.04121C4.68939 5.04121 5.23734 4.98052 5.74115 4.86611C5.39783 5.15202 5.11507 5.50805 4.91479 5.912ZM4.12489 1.37476C5.96102 1.37476 7.33297 2.10061 7.33297 2.74961C7.33297 3.39861 5.96102 4.12449 4.12489 4.12449C2.28873 4.12449 0.916751 3.39861 0.916751 2.74961C0.916751 2.10061 2.28873 1.37476 4.12489 1.37476ZM0.916751 8.24935V7.88372C1.04176 7.96821 1.17854 8.04803 1.32727 8.12238C2.08219 8.49984 3.07573 8.70772 4.12492 8.70772C4.37794 8.70772 4.62919 8.69529 4.87583 8.67124C5.01567 8.97453 5.20137 9.25249 5.42414 9.49601C5.01567 9.57965 4.57339 9.6242 4.12489 9.6242C2.28873 9.6242 0.916751 8.89832 0.916751 8.24935ZM7.79137 9.6242C6.52763 9.6242 5.4995 8.59606 5.4995 7.33232C5.4995 6.07216 6.52189 5.0465 7.78074 5.04072C7.78431 5.04081 7.78777 5.04127 7.79137 5.04127C7.79498 5.04127 7.7984 5.04081 7.80201 5.04072C9.06086 5.0465 10.0833 6.07216 10.0833 7.33232C10.0833 8.59606 9.05511 9.6242 7.79137 9.6242Z" fill="#FFE68C"/>
</g>
<defs>
<clipPath id="clip0_227:803">
<rect width="11" height="11" fill="white"/>
</clipPath>
</defs>
</svg>
