<svg width="25" height="25" viewBox="0 0 25 25" fill="none" xmlns="http://www.w3.org/2000/svg">
<circle cx="12.5" cy="12.5" r="12.5" fill="#8CFF9F"/>
<path d="M18.3203 13.667C18.2793 14.5576 18.0391 15.3457 17.5996 16.0312C17.1602 16.7109 16.542 17.2383 15.7451 17.6133C14.9541 17.9883 14.0488 18.1758 13.0293 18.1758C11.3477 18.1758 10.0234 17.6279 9.05664 16.5322C8.08984 15.4365 7.60645 13.8896 7.60645 11.8916V11.2588C7.60645 10.0049 7.82324 8.90918 8.25684 7.97168C8.69629 7.02832 9.32617 6.30176 10.1465 5.79199C10.9668 5.27637 11.916 5.01855 12.9941 5.01855C14.5469 5.01855 15.7949 5.42871 16.7383 6.24902C17.6816 7.06348 18.2178 8.18848 18.3467 9.62402H15.2705C15.2471 8.84473 15.0508 8.28516 14.6816 7.94531C14.3125 7.60547 13.75 7.43555 12.9941 7.43555C12.2266 7.43555 11.6641 7.72266 11.3066 8.29688C10.9492 8.87109 10.7617 9.78809 10.7441 11.0479V11.9531C10.7441 13.3184 10.9141 14.2939 11.2539 14.8799C11.5996 15.4658 12.1914 15.7588 13.0293 15.7588C13.7383 15.7588 14.2803 15.5918 14.6553 15.2578C15.0303 14.9238 15.2295 14.3936 15.2529 13.667H18.3203Z" fill="black" fill-opacity="0.8"/>
</svg>
