<svg width="43" height="43" viewBox="0 0 43 43" fill="none" xmlns="http://www.w3.org/2000/svg">
<g clip-path="url(#clip0_1088:6)">
<path d="M24.2079 21.2287L28.7734 13.087C28.8151 13.003 28.8751 12.9294 28.949 12.8718C29.023 12.8142 29.1089 12.7739 29.2006 12.754C29.2922 12.7342 29.3871 12.7352 29.4783 12.757C29.5694 12.7788 29.6545 12.8209 29.7272 12.8801L36.0296 18.6648" fill="#F2BC0F"/>
<path d="M6.96608 24.9688L10.3051 17.0902C10.3468 17.0062 10.4068 16.9326 10.4807 16.875C10.5547 16.8173 10.6406 16.7771 10.7322 16.7572C10.8239 16.7373 10.9188 16.7384 11.01 16.7602C11.1011 16.782 11.1862 16.8241 11.2589 16.8833L18.7872 22.4021" fill="#F2BC0F"/>
<path d="M35.1865 12.3496L30.0482 18.6068L19.4917 10.3115C19.4195 10.2552 19.3359 10.2155 19.2467 10.1952C19.1574 10.1748 19.0649 10.1743 18.9754 10.1937C18.886 10.2131 18.802 10.2519 18.7292 10.3074C18.6564 10.3629 18.5968 10.4337 18.5544 10.5148L12.3802 22.4387L5.11135 18.8724C5.00193 18.8187 4.87918 18.7983 4.75825 18.8135C4.63733 18.8287 4.5235 18.879 4.43082 18.9582C4.33814 19.0373 4.27065 19.1419 4.23668 19.259C4.20271 19.376 4.20374 19.5004 4.23965 19.6169L9.00218 35.034C9.04986 35.1814 9.15064 35.3058 9.28494 35.3831C9.41923 35.4603 9.57745 35.4849 9.72884 35.452L37.8525 29.3524C38.0039 29.3196 38.1377 29.2317 38.228 29.1058C38.3182 28.9799 38.3584 28.8249 38.3407 28.6709L36.2895 12.6716C36.275 12.55 36.2251 12.4353 36.146 12.3418C36.0669 12.2484 35.962 12.1802 35.8444 12.1459C35.7269 12.1116 35.6018 12.1126 35.4849 12.1488C35.3679 12.1851 35.2641 12.2549 35.1865 12.3496Z" fill="#F8DC25"/>
<g opacity="0.5">
<path opacity="0.5" d="M35.997 19.8148C34.193 26.3187 30.0489 28.973 25.3811 30.8315L14.9568 34.3184L37.8526 29.3526C38.004 29.3198 38.1379 29.2319 38.2281 29.106C38.3183 28.9801 38.3585 28.8251 38.3408 28.6711L36.7596 16.3514L35.997 19.8148Z" fill="#F2BC0F"/>
</g>
<path opacity="0.4" d="M5.11131 18.8724C5.00189 18.8187 4.87914 18.7982 4.75822 18.8135C4.63729 18.8287 4.52346 18.879 4.43078 18.9581C4.3381 19.0373 4.27061 19.1419 4.23664 19.2589C4.20267 19.376 4.20371 19.5004 4.23962 19.6169L9.00214 35.034C7.47948 29.892 6.45003 24.6167 5.92772 19.2795L5.11131 18.8724Z" fill="white"/>
<path d="M29.3419 17.9769L29.5629 16.9389C29.57 16.9029 29.5875 16.8696 29.6133 16.8434C29.639 16.8171 29.6719 16.799 29.7078 16.7912C29.7438 16.7834 29.7812 16.7863 29.8155 16.7995C29.8498 16.8127 29.8795 16.8357 29.901 16.8656L30.5321 17.7187L31.57 17.9397C31.6061 17.9468 31.6393 17.9643 31.6655 17.9901C31.6918 18.0158 31.7099 18.0487 31.7177 18.0846C31.7255 18.1206 31.7226 18.158 31.7094 18.1923C31.6962 18.2267 31.6732 18.2564 31.6433 18.2778L30.7902 18.9089L30.5692 19.9468C30.5621 19.9829 30.5446 20.0161 30.5188 20.0423C30.4931 20.0686 30.4602 20.0867 30.4243 20.0945C30.3883 20.1023 30.3509 20.0994 30.3166 20.0862C30.2823 20.073 30.2526 20.05 30.2311 20.0201L29.6 19.167L28.5621 18.946C28.526 18.9389 28.4928 18.9214 28.4666 18.8957C28.4403 18.8699 28.4222 18.837 28.4144 18.8011C28.4066 18.7651 28.4095 18.7277 28.4227 18.6934C28.4359 18.6591 28.4589 18.6294 28.4888 18.608L29.3419 17.9769Z" fill="white"/>
<path d="M17.9812 21.7905L19.1049 26.9716L22.8703 28.1579L25.7873 25.5252L24.6823 20.3371L20.9121 19.1288L17.9812 21.7905Z" fill="#F85565"/>
<path opacity="0.15" d="M19.4027 22.4669L20.1181 25.7652L22.527 26.5752L24.394 24.8868L23.6685 21.5417L21.2691 20.7757L19.4027 22.4669Z" fill="white"/>
<path opacity="0.2" d="M25.7875 25.5259L24.3941 24.887L22.5271 26.5755L22.8705 28.1587L25.7875 25.5259Z" fill="#393C54"/>
<path opacity="0.3" d="M20.9121 19.1288L21.2691 20.7752L19.4027 22.4664L17.9812 21.7905L20.9121 19.1288Z" fill="white"/>
</g>
<defs>
<clipPath id="clip0_1088:6">
<rect width="36" height="36" fill="white" transform="translate(0 7.63184) rotate(-12.237)"/>
</clipPath>
</defs>
</svg>
