<svg width="24" height="24" viewBox="0 0 24 24" fill="none" xmlns="http://www.w3.org/2000/svg">
<g clip-path="url(#clip0_279:2)">
<path d="M20.6748 9.0018L20.5 8.99983C18.0626 8.99983 15.8696 10.3624 14.7543 12.496C14.0528 12.1796 13.2921 11.9998 12.5002 11.9998C11.1918 11.9998 9.96131 12.4663 8.98717 13.2787C8.96837 12.4198 8.85649 11.5644 8.74732 10.8045C8.6538 10.1548 8.56408 9.52435 8.55822 8.99941L11.0862 8.99983C11.4865 8.99983 11.8635 8.8436 12.1467 8.56038L14.1467 6.5604C14.7183 5.98877 14.7222 5.07191 14.1766 4.48439C14.3672 4.19874 14.4579 3.85661 14.423 3.50725C14.3786 3.05853 14.1379 2.65719 13.7624 2.40716L12.5485 1.59811C11.9621 1.207 11.279 1 10.5735 1C9.10281 1 7.72049 1.57276 6.68049 2.61275C4.76493 4.52822 3.25765 6.72156 2.19909 9.13215C0.923734 12.0364 0.277245 14.179 0.277245 15.4997C0.277245 16.2566 0.211809 16.8713 0.0824362 17.3274C-0.193934 18.3014 0.241105 19.3405 1.14006 19.8542C4.74107 21.9117 8.8367 22.9996 12.9841 22.9996H13.7072C16.278 22.9996 18.818 22.5875 21.2569 21.7745L21.607 21.6574C23.0381 21.1808 24 19.8464 24 18.3376V12.5042C24 10.6214 22.5083 9.05013 20.6748 9.0018ZM23 18.3376C23 19.4152 22.313 20.3683 21.2901 20.7091L20.9399 20.8263C18.6041 21.6046 16.1705 21.9996 13.7072 21.9996H12.984C9.01047 21.9996 5.08621 20.9577 1.63608 18.986C1.13706 18.7009 0.893922 18.131 1.04429 17.6003C1.19907 17.0558 1.27721 16.3488 1.27721 15.4997C1.27721 14.3347 1.91245 12.2722 3.11506 9.53448C4.12285 7.23764 5.56034 5.14687 7.38745 3.31976C8.2385 2.46871 9.36985 1.99997 10.5734 1.99997C11.0808 1.99997 11.572 2.14889 11.9938 2.43013L13.2077 3.23918C13.3332 3.32266 13.4132 3.45644 13.4279 3.60588C13.443 3.75578 13.3903 3.90226 13.2843 4.00871L11.6872 5.60586C11.5163 5.77676 11.256 5.81876 11.0402 5.71086C10.8771 5.62929 10.7668 5.47939 10.7375 5.29925C10.7082 5.11912 10.7653 4.94184 10.8942 4.81293L11.3537 4.35347C11.549 4.15815 11.549 3.84175 11.3537 3.64647C11.1584 3.45114 10.842 3.45114 10.6467 3.64647L10.1872 4.10593C9.82837 4.4648 9.66867 4.95848 9.75024 5.45989C9.8318 5.96088 10.1389 6.37834 10.593 6.6054C11.1936 6.90521 11.9186 6.78901 12.3942 6.31291L13.4879 5.21924C13.623 5.41395 13.613 5.68011 13.4396 5.85345L11.4396 7.85343C11.3463 7.94671 11.2174 7.99991 11.0861 7.99991L8.75144 7.99953C8.7828 7.94764 8.81289 7.89425 8.85372 7.85343C9.04904 7.6581 9.04904 7.3417 8.85372 7.14642C8.65839 6.9511 8.342 6.9511 8.14672 7.14642C7.32886 7.96428 7.5276 9.3466 7.75757 10.9471C7.87672 11.7782 8.00024 12.6375 8.00024 13.4998C8.00024 15.5594 6.44167 15.9978 6.37525 16.0154C6.10961 16.0843 5.9485 16.3542 6.01539 16.6209C6.07202 16.8484 6.27564 16.9998 6.49975 16.9998C6.53978 16.9998 6.58079 16.9949 6.62134 16.9846C7.22001 16.835 8.20114 16.2605 8.6943 15.082C8.7011 15.0729 8.71216 15.0695 8.71849 15.0598C9.55247 13.7698 10.966 12.9998 12.5002 12.9998C13.6945 12.9998 14.8194 13.4627 15.6676 14.3035C15.8639 14.4978 16.1808 14.4969 16.3746 14.3005C16.5689 14.1042 16.5679 13.7878 16.3716 13.5935C16.1403 13.3642 15.8867 13.1664 15.6245 12.9842C16.5643 11.1638 18.4277 9.99984 20.5 9.99984L20.6479 10.0018C21.9448 10.036 22.9999 11.1585 22.9999 12.5042V18.3376H23Z" fill="#8CFF9F"/>
</g>
<defs>
<clipPath id="clip0_279:2">
<rect width="24" height="24" fill="white"/>
</clipPath>
</defs>
</svg>
