<svg width="15" height="15" viewBox="0 0 15 15" fill="none" xmlns="http://www.w3.org/2000/svg">
<path d="M0.346542 9.47249L1.92903 8.23123C1.89904 7.99122 1.87654 7.74748 1.87654 7.49998C1.87654 7.25248 1.89904 7.00874 1.92903 6.76873L0.34278 5.52747C0.200292 5.41497 0.159019 5.21247 0.25278 5.04748L1.75279 2.44874C1.84655 2.28747 2.04153 2.21997 2.21028 2.28747L4.07778 3.04122C4.46404 2.74496 4.88778 2.49374 5.34526 2.30249L5.62651 0.315C5.6603 0.138762 5.81404 0 6.00153 0H9.00151C9.189 0 9.34277 0.138762 9.37276 0.315L9.65401 2.30249C10.1115 2.49374 10.5353 2.74124 10.9215 3.04122L12.789 2.28747C12.9577 2.22374 13.1528 2.28747 13.2465 2.44874L14.7465 5.04748C14.8403 5.20875 14.799 5.41125 14.6565 5.52747L13.074 6.76873C13.104 7.00874 13.1265 7.25248 13.1265 7.49998C13.1265 7.74748 13.104 7.99122 13.074 8.23123L14.6565 9.47249C14.799 9.58499 14.8403 9.78749 14.7465 9.95248L13.2465 12.5512C13.1528 12.7125 12.9578 12.78 12.789 12.7125L10.9215 11.9587C10.5353 12.255 10.1115 12.5062 9.65405 12.6975L9.3728 14.685C9.34281 14.8612 9.18903 15 9.00155 15H6.00156C5.81407 15 5.6603 14.8612 5.63031 14.685L5.34906 12.6975C4.89157 12.5062 4.4678 12.2587 4.08157 11.9587L2.21408 12.7125C2.04533 12.7762 1.85032 12.7125 1.75659 12.5512L0.256577 9.95248C0.16278 9.79125 0.204055 9.58875 0.346542 9.47249ZM7.50154 10.125C8.95279 10.125 10.1265 8.95123 10.1265 7.49998C10.1265 6.04873 8.95279 4.87501 7.50154 4.87501C6.05029 4.87501 4.87653 6.04877 4.87653 7.50002C4.87653 8.95127 6.05029 10.125 7.50154 10.125Z" fill="white" fill-opacity="0.1"/>
</svg>
