<svg width="28" height="28" viewBox="0 0 28 28" fill="none" xmlns="http://www.w3.org/2000/svg">
<g clip-path="url(#clip0_271:53)">
<path d="M28 19.585C28 15.8454 26.5437 12.3297 23.8995 9.68543C21.2552 7.04118 17.7395 5.58496 14 5.58496C10.2605 5.58496 6.74477 7.04123 4.10047 9.68543C1.45627 12.3297 0 15.8454 0 19.585V20.4053H11.2118C11.4352 21.0792 11.8884 21.6435 12.5056 22.0079C12.9736 22.2842 13.4874 22.4155 13.995 22.4155C15.0016 22.4155 15.9835 21.8988 16.5312 20.971C16.6382 20.7898 16.7238 20.6002 16.7892 20.4053H28V19.585ZM15.1185 20.1369C14.7545 20.7536 13.9565 20.9593 13.3397 20.5951C13.0409 20.4187 12.8288 20.1366 12.7422 19.8006C12.6557 19.4646 12.7051 19.1151 12.8815 18.8163C13.058 18.5176 13.3401 18.3054 13.676 18.2189C13.7841 18.191 13.8935 18.1773 14.0022 18.1773C14.2315 18.1773 14.4576 18.2386 14.6603 18.3582C14.9591 18.5346 15.1712 18.8167 15.2578 19.1527C15.3443 19.4887 15.2949 19.8382 15.1185 20.1369ZM16.8515 18.7646C16.8497 18.7576 16.8483 18.7505 16.8465 18.7434C16.721 18.2558 16.4779 17.8188 16.1418 17.4624L18.4991 13.4694L17.0863 12.6353L14.729 16.6283C14.2546 16.5062 13.7545 16.5045 13.2668 16.63C12.5065 16.8259 11.8679 17.3061 11.4687 17.9822C11.3225 18.23 11.2152 18.4932 11.1471 18.7646H1.66753C1.77647 17.1105 2.21309 15.5446 2.91167 14.1303L4.73337 15.1821L5.55368 13.7613L3.73401 12.7107C4.63329 11.3722 5.78703 10.2182 7.12562 9.31891L8.17627 11.1387L9.59705 10.3184L8.54509 8.4963C9.95936 7.79773 11.5256 7.36225 13.1796 7.25331V9.3584H14.8203V7.25331C16.4743 7.36225 18.0405 7.79773 19.4548 8.4963L18.4028 10.3184L19.8236 11.1387L20.8743 9.31891C22.2129 10.2182 23.3665 11.3722 24.2659 12.7107L22.4462 13.7613L23.2665 15.1821L25.0882 14.1303C25.7868 15.5446 26.2234 17.1105 26.3324 18.7646H16.8515Z" fill="#8CFF9F"/>
</g>
<defs>
<clipPath id="clip0_271:53">
<rect width="28" height="28" fill="white"/>
</clipPath>
</defs>
</svg>
