<svg width="12" height="12" viewBox="0 0 12 12" fill="none" xmlns="http://www.w3.org/2000/svg">
<g clip-path="url(#clip0_227:784)">
<path d="M10.5779 6.00195C10.5243 6.27111 10.2856 6.46718 9.99943 6.47936C9.90931 6.48301 9.83258 6.54877 9.81552 6.63768C9.79725 6.72658 9.84231 6.8167 9.92391 6.85446C10.1833 6.97624 10.3282 7.24904 10.2734 7.51819L10.2223 7.77394C10.1553 8.11129 9.78263 8.32198 9.45625 8.2416C9.36491 8.21968 9.27114 8.20263 9.17858 8.18436C9.04218 8.15757 8.90578 8.12956 8.76938 8.10276C8.58912 8.06623 8.40888 8.03092 8.22865 7.99439C8.0143 7.95176 7.79874 7.90791 7.5844 7.86528C7.34449 7.81657 7.10457 7.76908 6.86464 7.72037C6.60889 7.66922 6.35192 7.61807 6.09617 7.5657C5.8331 7.51333 5.57005 7.45975 5.30821 7.40738C5.04759 7.35501 4.78819 7.30263 4.52755 7.25027C4.27912 7.20034 4.03066 7.15041 3.78223 7.10048C3.55449 7.05542 3.32797 7.00914 3.10023 6.96408C2.90293 6.9251 2.70564 6.88492 2.50956 6.84594C2.35246 6.81428 2.19536 6.78263 2.03703 6.75095C1.92864 6.72903 1.82024 6.70711 1.71186 6.6852C1.66192 6.67544 1.612 6.66449 1.56207 6.65475C1.55963 6.65475 1.5572 6.65352 1.55475 6.65352C1.58154 6.78018 1.56936 6.91536 1.5109 7.04202C1.38789 7.30751 1.10169 7.44635 0.826466 7.39276C0.744869 7.37693 0.655965 7.40738 0.620647 7.48289L0.51104 7.72037C0.475734 7.79586 0.51104 7.88355 0.575599 7.93592C0.587777 7.94567 9.36613 11.9926 9.38073 11.9963C9.46233 12.0121 9.55123 11.9817 9.58655 11.9061L9.69616 11.6687C9.73148 11.5932 9.69616 11.5055 9.63161 11.4531C9.4124 11.2789 9.33201 10.9708 9.45502 10.7053C9.57803 10.4399 9.86422 10.301 10.1395 10.3546C10.221 10.3704 10.31 10.34 10.3453 10.2645L10.4549 10.027C10.4902 9.95149 10.4549 9.86382 10.3903 9.81144C10.1711 9.63728 10.0907 9.32916 10.2137 9.06368C10.3367 8.7982 10.6229 8.65935 10.8982 8.71294C10.9798 8.72877 11.0687 8.69832 11.104 8.62282L11.2136 8.38533C11.2489 8.30983 11.2136 8.22214 11.149 8.16977C10.9298 7.99562 10.8495 7.6875 10.9725 7.422C11.0955 7.15651 11.3817 7.01769 11.6569 7.07126C11.7385 7.08709 11.8274 7.05665 11.8627 6.98115L11.9833 6.71808C12.0186 6.64257 11.9857 6.55367 11.9102 6.51836L10.5986 5.91309L10.5779 6.00195Z" fill="#FFE68C"/>
<path d="M0.118144 5.9176C0.132758 5.92491 9.60894 7.82597 9.62478 7.82597C9.7076 7.82232 9.78797 7.77117 9.8038 7.69079L9.85495 7.43504C9.87078 7.35345 9.8172 7.2755 9.74169 7.24018C9.48838 7.12083 9.33857 6.84073 9.39582 6.55331C9.45306 6.26589 9.70028 6.06495 9.98039 6.05277C10.0632 6.04912 10.1436 5.99797 10.1594 5.91759L10.1972 5.73004L10.2106 5.66062C10.2264 5.57902 10.1728 5.50108 10.0973 5.46576C9.84399 5.34641 9.69419 5.0663 9.75145 4.7789C9.80869 4.49147 10.0559 4.29052 10.336 4.27835C10.4188 4.27469 10.4992 4.22354 10.515 4.14316L10.5662 3.88741C10.582 3.80582 10.5284 3.72787 10.4529 3.69255C10.1996 3.5732 10.0498 3.2931 10.1071 3.00568C10.1643 2.71827 10.4115 2.51732 10.6916 2.50514C10.7745 2.50149 10.8548 2.45034 10.8707 2.36996L10.9279 2.0862C10.9437 2.0046 10.8914 1.92544 10.8098 1.90961C10.8098 1.90961 1.2873 0 1.27756 0C1.20692 0 1.14481 0.0499323 1.1302 0.120568L1.07296 0.40433C1.05713 0.485927 1.11071 0.56387 1.18622 0.599188C1.43954 0.718538 1.58933 0.998646 1.53209 1.28606C1.47485 1.57348 1.22763 1.77442 0.94752 1.7866C0.864693 1.79026 0.784326 1.84141 0.768494 1.92178L0.717344 2.17754C0.701512 2.25913 0.755098 2.33708 0.830605 2.37239C1.08392 2.49174 1.23373 2.77185 1.17648 3.05927C1.11924 3.34668 0.872012 3.54763 0.591904 3.55981C0.50909 3.56346 0.428711 3.61461 0.412878 3.69499L0.361728 3.95074C0.345896 4.03234 0.399494 4.11028 0.474989 4.1456C0.728317 4.26495 0.878114 4.54506 0.820862 4.83247C0.763623 5.1199 0.516397 5.32085 0.236288 5.33303C0.153474 5.33668 0.0730948 5.38783 0.0572626 5.46821L0.00611238 5.72396C-0.0109499 5.80556 0.0426239 5.88228 0.118144 5.9176ZM8.2352 2.79622C8.26808 2.63181 8.42884 2.52464 8.59325 2.55752C8.75766 2.5904 8.86483 2.75116 8.83195 2.91557L8.43005 4.9153L8.18283 6.14778C8.1536 6.2927 8.02694 6.39258 7.88445 6.39258C7.86495 6.39258 7.84426 6.39014 7.82478 6.38649C7.66037 6.35361 7.55319 6.19285 7.58608 6.02844L7.86253 4.65347L8.2352 2.79622ZM2.74507 1.69406C2.77795 1.52965 2.93871 1.42247 3.10312 1.45536C3.26754 1.48824 3.37471 1.649 3.34183 1.81341L3.20299 2.50393L3.0459 3.28702L2.91924 3.91787L2.69393 5.04561C2.66472 5.19054 2.53805 5.29041 2.39556 5.29041C2.37607 5.29041 2.35537 5.28798 2.3359 5.28432C2.32737 5.28309 2.31885 5.28066 2.31154 5.27823C2.16052 5.23438 2.06674 5.08215 2.09841 4.92627L2.14346 4.69853L2.26159 4.10909L2.74507 1.69406Z" fill="#FFE68C"/>
</g>
<defs>
<clipPath id="clip0_227:784">
<rect width="12" height="12" fill="white"/>
</clipPath>
</defs>
</svg>
